<svg xmlns="http://www.w3.org/2000/svg" width="950" height="500" font-size="20" version="1.1"><title>Module Diagram for org.apache.derby.engine</title><desc>This diagram shows how org.apache.derby.engine depends on other modules supplied by Derby, the JVM, and third-parties. To improve readability, direct dependencies are omitted when they can be deduced by walking the graph.</desc><style>text.jdk,text.optional{stroke:#000;text-anchor:middle}text.optional{font:italic;stroke:gray}text.derby{stroke:#00f;text-anchor:middle}line{stroke-width:1;stroke:#000;marker-end:url(#arrowhead)}</style><defs><marker id="arrowhead" markerHeight="7" markerWidth="10" orient="auto" refX="0" refY="3.5"><polygon points="0 0 10 3.5 0 7"/></marker></defs><text x="540" y="180" class="optional">org.apache.derby.tools</text><text x="260" y="240" class="derby">org.apache.derby.engine</text><text x="840" y="240" class="optional">org.apache.derby.locale_*</text><text x="690" y="300" class="derby">org.apache.derby.commons</text><text x="100" y="300" class="optional">org.osgi.framework</text><text x="690" y="360" class="jdk">java.sql</text><text x="250" y="420" class="optional">java.management</text><text x="400" y="420" class="optional">java.naming</text><text x="530" y="420" class="jdk">java.logging</text><text x="690" y="420" class="jdk">java.transaction.xa</text><text x="840" y="420" class="jdk">java.xml</text><text x="500" y="480" class="jdk">java.base</text><line x1="445" x2="370" y1="190" y2="220"/><line x1="170" x2="170" y1="250" y2="270"/><line x1="250" x2="250" y1="250" y2="390"/><line x1="350" x2="350" y1="250" y2="390"/><line x1="360" x2="570" y1="245" y2="280"/><line x1="790" x2="790" y1="250" y2="270"/><line x1="690" x2="690" y1="310" y2="330"/><line x1="650" x2="600" y1="370" y2="395"/><line x1="690" x2="690" y1="370" y2="390"/><line x1="730" x2="780" y1="370" y2="395"/><line x1="250" x2="440" y1="430" y2="480"/><line x1="400" x2="440" y1="430" y2="460"/><line x1="500" x2="500" y1="430" y2="450"/><line x1="620" x2="560" y1="430" y2="460"/><line x1="840" x2="560" y1="430" y2="480"/></svg>